<mxfile host="app.diagrams.net" modified="2023-11-17T00:21:41.563Z" agent="Mozilla/5.0 (Windows NT 10.0; Win64; x64) AppleWebKit/537.36 (KHTML, like Gecko) Chrome/119.0.0.0 Safari/537.36 Edg/119.0.0.0" etag="dcD-UDyodxNOl_Do3zeI" version="22.1.2" type="device">
  <diagram name="Page-1" id="b5b7bab2-c9e2-2cf4-8b2a-24fd1a2a6d21">
    <mxGraphModel dx="2400" dy="720" grid="1" gridSize="10" guides="1" tooltips="1" connect="1" arrows="1" fold="1" page="1" pageScale="1" pageWidth="827" pageHeight="1169" background="none" math="0" shadow="0">
      <root>
        <mxCell id="0" />
        <mxCell id="1" parent="0" />
        <mxCell id="oTCCA9rSkmGnC_1_AHJk-1" value="Component and Connector" style="shape=umlFrame;whiteSpace=wrap;html=1;pointerEvents=0;recursiveResize=0;container=1;collapsible=0;width=160;" vertex="1" parent="1">
          <mxGeometry x="-680" y="120" width="1090" height="880" as="geometry" />
        </mxCell>
        <mxCell id="oTCCA9rSkmGnC_1_AHJk-16" value="&lt;p style=&quot;margin:0px;margin-top:6px;text-align:center;&quot;&gt;&lt;b&gt;&amp;lt;&amp;lt;Component&amp;gt;&amp;gt; Registry&lt;/b&gt;&lt;/p&gt;&lt;hr&gt;&lt;p style=&quot;margin:0px;margin-left:8px;&quot;&gt;&lt;br&gt;&lt;/p&gt;" style="align=left;overflow=fill;html=1;dropTarget=0;whiteSpace=wrap;" vertex="1" parent="oTCCA9rSkmGnC_1_AHJk-1">
          <mxGeometry x="670" y="20" width="275" height="490" as="geometry" />
        </mxCell>
        <mxCell id="oTCCA9rSkmGnC_1_AHJk-17" value="" style="shape=component;jettyWidth=8;jettyHeight=4;" vertex="1" parent="oTCCA9rSkmGnC_1_AHJk-16">
          <mxGeometry x="1" width="20" height="20" relative="1" as="geometry">
            <mxPoint x="-24" y="4" as="offset" />
          </mxGeometry>
        </mxCell>
        <mxCell id="oTCCA9rSkmGnC_1_AHJk-65" value="«subsystem»&lt;br&gt;&lt;b&gt;primary_Registry&lt;/b&gt;" style="html=1;dropTarget=0;whiteSpace=wrap;" vertex="1" parent="oTCCA9rSkmGnC_1_AHJk-1">
          <mxGeometry x="695" y="80" width="180" height="90" as="geometry" />
        </mxCell>
        <mxCell id="oTCCA9rSkmGnC_1_AHJk-66" value="" style="shape=module;jettyWidth=8;jettyHeight=4;" vertex="1" parent="oTCCA9rSkmGnC_1_AHJk-65">
          <mxGeometry x="1" width="20" height="20" relative="1" as="geometry">
            <mxPoint x="-27" y="7" as="offset" />
          </mxGeometry>
        </mxCell>
        <mxCell id="oTCCA9rSkmGnC_1_AHJk-67" value="" style="html=1;rounded=0;direction=west;rotation=-180;" vertex="1" parent="oTCCA9rSkmGnC_1_AHJk-1">
          <mxGeometry x="685" y="110" width="30" height="30" as="geometry" />
        </mxCell>
        <mxCell id="oTCCA9rSkmGnC_1_AHJk-68" value="" style="endArrow=none;html=1;rounded=0;align=center;verticalAlign=top;endFill=0;labelBackgroundColor=none;endSize=2;" edge="1" parent="oTCCA9rSkmGnC_1_AHJk-1" source="oTCCA9rSkmGnC_1_AHJk-67" target="oTCCA9rSkmGnC_1_AHJk-69">
          <mxGeometry relative="1" as="geometry" />
        </mxCell>
        <mxCell id="oTCCA9rSkmGnC_1_AHJk-69" value="" style="ellipse;html=1;fontSize=11;align=center;fillColor=none;points=[];aspect=fixed;resizable=0;verticalAlign=bottom;labelPosition=center;verticalLabelPosition=top;flipH=1;" vertex="1" parent="oTCCA9rSkmGnC_1_AHJk-1">
          <mxGeometry x="640" y="121" width="8" height="8" as="geometry" />
        </mxCell>
        <mxCell id="oTCCA9rSkmGnC_1_AHJk-70" value="«subsystem»&lt;br&gt;&lt;b&gt;Registry Database&lt;/b&gt;" style="html=1;dropTarget=0;whiteSpace=wrap;" vertex="1" parent="oTCCA9rSkmGnC_1_AHJk-1">
          <mxGeometry x="695" y="210" width="180" height="90" as="geometry" />
        </mxCell>
        <mxCell id="oTCCA9rSkmGnC_1_AHJk-71" value="" style="shape=module;jettyWidth=8;jettyHeight=4;" vertex="1" parent="oTCCA9rSkmGnC_1_AHJk-70">
          <mxGeometry x="1" width="20" height="20" relative="1" as="geometry">
            <mxPoint x="-27" y="7" as="offset" />
          </mxGeometry>
        </mxCell>
        <mxCell id="oTCCA9rSkmGnC_1_AHJk-72" value="" style="html=1;rounded=0;direction=west;rotation=-180;" vertex="1" parent="oTCCA9rSkmGnC_1_AHJk-1">
          <mxGeometry x="685" y="240" width="30" height="30" as="geometry" />
        </mxCell>
        <mxCell id="oTCCA9rSkmGnC_1_AHJk-75" value="" style="html=1;rounded=0;" vertex="1" parent="oTCCA9rSkmGnC_1_AHJk-1">
          <mxGeometry x="860" y="240" width="30" height="30" as="geometry" />
        </mxCell>
        <mxCell id="oTCCA9rSkmGnC_1_AHJk-76" value="" style="endArrow=none;html=1;rounded=0;align=center;verticalAlign=top;endFill=0;labelBackgroundColor=none;endSize=2;" edge="1" source="oTCCA9rSkmGnC_1_AHJk-75" target="oTCCA9rSkmGnC_1_AHJk-77" parent="oTCCA9rSkmGnC_1_AHJk-1">
          <mxGeometry relative="1" as="geometry" />
        </mxCell>
        <mxCell id="oTCCA9rSkmGnC_1_AHJk-77" value="" style="shape=requiredInterface;html=1;fontSize=11;align=center;fillColor=none;points=[];aspect=fixed;resizable=0;verticalAlign=bottom;labelPosition=center;verticalLabelPosition=top;flipH=1;" vertex="1" parent="oTCCA9rSkmGnC_1_AHJk-1">
          <mxGeometry x="915" y="250" width="5" height="10" as="geometry" />
        </mxCell>
        <mxCell id="oTCCA9rSkmGnC_1_AHJk-81" value="«subsystem»&lt;br&gt;&lt;b&gt;Backup Registry&lt;/b&gt;" style="html=1;dropTarget=0;whiteSpace=wrap;" vertex="1" parent="oTCCA9rSkmGnC_1_AHJk-1">
          <mxGeometry x="695" y="375" width="180" height="90" as="geometry" />
        </mxCell>
        <mxCell id="oTCCA9rSkmGnC_1_AHJk-82" value="" style="shape=module;jettyWidth=8;jettyHeight=4;" vertex="1" parent="oTCCA9rSkmGnC_1_AHJk-81">
          <mxGeometry x="1" width="20" height="20" relative="1" as="geometry">
            <mxPoint x="-27" y="7" as="offset" />
          </mxGeometry>
        </mxCell>
        <mxCell id="oTCCA9rSkmGnC_1_AHJk-90" value="" style="html=1;rounded=0;" vertex="1" parent="oTCCA9rSkmGnC_1_AHJk-1">
          <mxGeometry x="860" y="110" width="30" height="30" as="geometry" />
        </mxCell>
        <mxCell id="oTCCA9rSkmGnC_1_AHJk-91" value="" style="endArrow=none;html=1;rounded=0;align=center;verticalAlign=top;endFill=0;labelBackgroundColor=none;endSize=2;" edge="1" source="oTCCA9rSkmGnC_1_AHJk-90" target="oTCCA9rSkmGnC_1_AHJk-92" parent="oTCCA9rSkmGnC_1_AHJk-1">
          <mxGeometry relative="1" as="geometry" />
        </mxCell>
        <mxCell id="oTCCA9rSkmGnC_1_AHJk-92" value="" style="ellipse;html=1;fontSize=11;align=center;fillColor=none;points=[];aspect=fixed;resizable=0;verticalAlign=bottom;labelPosition=center;verticalLabelPosition=top;flipH=1;" vertex="1" parent="oTCCA9rSkmGnC_1_AHJk-1">
          <mxGeometry x="912" y="121" width="8" height="8" as="geometry" />
        </mxCell>
        <mxCell id="oTCCA9rSkmGnC_1_AHJk-96" value="myDatabase" style="html=1;verticalAlign=bottom;labelBackgroundColor=none;startArrow=oval;startFill=0;startSize=8;endArrow=none;rounded=0;entryX=0;entryY=0.5;entryDx=0;entryDy=0;" edge="1" parent="oTCCA9rSkmGnC_1_AHJk-1" target="oTCCA9rSkmGnC_1_AHJk-72">
          <mxGeometry x="-1" y="3" relative="1" as="geometry">
            <mxPoint x="630" y="255" as="sourcePoint" />
            <mxPoint x="670" y="260" as="targetPoint" />
          </mxGeometry>
        </mxCell>
        <mxCell id="oTCCA9rSkmGnC_1_AHJk-102" value="" style="html=1;rounded=0;" vertex="1" parent="oTCCA9rSkmGnC_1_AHJk-1">
          <mxGeometry x="930" y="110" width="30" height="30" as="geometry" />
        </mxCell>
        <mxCell id="oTCCA9rSkmGnC_1_AHJk-108" value="pRegistry" style="html=1;verticalAlign=bottom;labelBackgroundColor=none;startArrow=oval;startFill=0;startSize=8;endArrow=none;rounded=0;entryX=1;entryY=0.5;entryDx=0;entryDy=0;" edge="1" parent="oTCCA9rSkmGnC_1_AHJk-1" target="oTCCA9rSkmGnC_1_AHJk-102">
          <mxGeometry x="-1" y="-5" relative="1" as="geometry">
            <mxPoint x="1000" y="125" as="sourcePoint" />
            <mxPoint x="977.5" y="121" as="targetPoint" />
            <mxPoint as="offset" />
          </mxGeometry>
        </mxCell>
        <mxCell id="oTCCA9rSkmGnC_1_AHJk-109" value="" style="html=1;rounded=0;" vertex="1" parent="oTCCA9rSkmGnC_1_AHJk-1">
          <mxGeometry x="930" y="240" width="30" height="30" as="geometry" />
        </mxCell>
        <mxCell id="oTCCA9rSkmGnC_1_AHJk-110" value="" style="endArrow=none;html=1;rounded=0;align=center;verticalAlign=top;endFill=0;labelBackgroundColor=none;endSize=2;" edge="1" source="oTCCA9rSkmGnC_1_AHJk-109" target="oTCCA9rSkmGnC_1_AHJk-111" parent="oTCCA9rSkmGnC_1_AHJk-1">
          <mxGeometry relative="1" as="geometry" />
        </mxCell>
        <mxCell id="oTCCA9rSkmGnC_1_AHJk-111" value="" style="shape=requiredInterface;html=1;fontSize=11;align=center;fillColor=none;points=[];aspect=fixed;resizable=0;verticalAlign=bottom;labelPosition=center;verticalLabelPosition=top;flipH=1;" vertex="1" parent="oTCCA9rSkmGnC_1_AHJk-1">
          <mxGeometry x="985" y="250" width="5" height="10" as="geometry" />
        </mxCell>
        <mxCell id="oTCCA9rSkmGnC_1_AHJk-112" value="" style="endArrow=open;html=1;rounded=0;align=center;verticalAlign=bottom;dashed=1;endFill=0;labelBackgroundColor=none;exitX=0.798;exitY=0.502;exitDx=0;exitDy=0;exitPerimeter=0;" edge="1" parent="oTCCA9rSkmGnC_1_AHJk-1" source="oTCCA9rSkmGnC_1_AHJk-111">
          <mxGeometry relative="1" as="geometry">
            <mxPoint x="1000" y="254" as="sourcePoint" />
            <mxPoint x="1000" y="130" as="targetPoint" />
            <Array as="points">
              <mxPoint x="1000" y="255" />
            </Array>
          </mxGeometry>
        </mxCell>
        <mxCell id="oTCCA9rSkmGnC_1_AHJk-113" value="" style="resizable=0;html=1;align=center;verticalAlign=top;labelBackgroundColor=none;" connectable="0" vertex="1" parent="oTCCA9rSkmGnC_1_AHJk-112">
          <mxGeometry relative="1" as="geometry" />
        </mxCell>
        <mxCell id="oTCCA9rSkmGnC_1_AHJk-117" value="" style="endArrow=none;html=1;rounded=0;entryX=0;entryY=0.5;entryDx=0;entryDy=0;" edge="1" parent="oTCCA9rSkmGnC_1_AHJk-1" source="oTCCA9rSkmGnC_1_AHJk-92" target="oTCCA9rSkmGnC_1_AHJk-102">
          <mxGeometry width="50" height="50" relative="1" as="geometry">
            <mxPoint x="860" y="240" as="sourcePoint" />
            <mxPoint x="910" y="190" as="targetPoint" />
          </mxGeometry>
        </mxCell>
        <mxCell id="oTCCA9rSkmGnC_1_AHJk-119" value="" style="endArrow=none;html=1;rounded=0;entryX=0;entryY=0.5;entryDx=0;entryDy=0;exitX=0.983;exitY=0.488;exitDx=0;exitDy=0;exitPerimeter=0;" edge="1" parent="oTCCA9rSkmGnC_1_AHJk-1" source="oTCCA9rSkmGnC_1_AHJk-77" target="oTCCA9rSkmGnC_1_AHJk-109">
          <mxGeometry width="50" height="50" relative="1" as="geometry">
            <mxPoint x="910" y="160" as="sourcePoint" />
            <mxPoint x="960" y="110" as="targetPoint" />
          </mxGeometry>
        </mxCell>
        <mxCell id="oTCCA9rSkmGnC_1_AHJk-120" value="pRegistry" style="text;html=1;strokeColor=none;fillColor=none;align=center;verticalAlign=middle;whiteSpace=wrap;rounded=0;" vertex="1" parent="oTCCA9rSkmGnC_1_AHJk-1">
          <mxGeometry x="610" y="99" width="60" height="30" as="geometry" />
        </mxCell>
        <mxCell id="oTCCA9rSkmGnC_1_AHJk-121" value="pRegistry" style="text;html=1;strokeColor=none;fillColor=none;align=center;verticalAlign=middle;whiteSpace=wrap;rounded=0;" vertex="1" parent="oTCCA9rSkmGnC_1_AHJk-1">
          <mxGeometry x="970" y="250" width="60" height="30" as="geometry" />
        </mxCell>
        <mxCell id="oTCCA9rSkmGnC_1_AHJk-129" value="&lt;p style=&quot;margin:0px;margin-top:6px;text-align:center;&quot;&gt;&lt;b&gt;&amp;lt;&amp;lt;Component&amp;gt;&amp;gt; Database&lt;/b&gt;&lt;/p&gt;&lt;hr&gt;&lt;p style=&quot;margin:0px;margin-left:8px;&quot;&gt;&lt;br&gt;&lt;/p&gt;" style="align=left;overflow=fill;html=1;dropTarget=0;whiteSpace=wrap;" vertex="1" parent="oTCCA9rSkmGnC_1_AHJk-1">
          <mxGeometry x="670" y="550" width="275" height="310" as="geometry" />
        </mxCell>
        <mxCell id="oTCCA9rSkmGnC_1_AHJk-130" value="" style="shape=component;jettyWidth=8;jettyHeight=4;" vertex="1" parent="oTCCA9rSkmGnC_1_AHJk-129">
          <mxGeometry x="1" width="20" height="20" relative="1" as="geometry">
            <mxPoint x="-24" y="4" as="offset" />
          </mxGeometry>
        </mxCell>
        <mxCell id="oTCCA9rSkmGnC_1_AHJk-131" value="«subsystem»&lt;br&gt;&lt;b&gt;Authentication&lt;/b&gt;" style="html=1;dropTarget=0;whiteSpace=wrap;" vertex="1" parent="oTCCA9rSkmGnC_1_AHJk-1">
          <mxGeometry x="695" y="610" width="180" height="90" as="geometry" />
        </mxCell>
        <mxCell id="oTCCA9rSkmGnC_1_AHJk-132" value="" style="shape=module;jettyWidth=8;jettyHeight=4;" vertex="1" parent="oTCCA9rSkmGnC_1_AHJk-131">
          <mxGeometry x="1" width="20" height="20" relative="1" as="geometry">
            <mxPoint x="-27" y="7" as="offset" />
          </mxGeometry>
        </mxCell>
        <mxCell id="oTCCA9rSkmGnC_1_AHJk-133" value="" style="html=1;rounded=0;direction=west;rotation=-180;" vertex="1" parent="oTCCA9rSkmGnC_1_AHJk-1">
          <mxGeometry x="685" y="640" width="30" height="30" as="geometry" />
        </mxCell>
        <mxCell id="oTCCA9rSkmGnC_1_AHJk-134" value="" style="endArrow=none;html=1;rounded=0;align=center;verticalAlign=top;endFill=0;labelBackgroundColor=none;endSize=2;" edge="1" parent="oTCCA9rSkmGnC_1_AHJk-1" source="oTCCA9rSkmGnC_1_AHJk-133" target="oTCCA9rSkmGnC_1_AHJk-135">
          <mxGeometry relative="1" as="geometry" />
        </mxCell>
        <mxCell id="oTCCA9rSkmGnC_1_AHJk-135" value="" style="ellipse;html=1;fontSize=11;align=center;fillColor=none;points=[];aspect=fixed;resizable=0;verticalAlign=bottom;labelPosition=center;verticalLabelPosition=top;flipH=1;" vertex="1" parent="oTCCA9rSkmGnC_1_AHJk-1">
          <mxGeometry x="640" y="651" width="8" height="8" as="geometry" />
        </mxCell>
        <mxCell id="oTCCA9rSkmGnC_1_AHJk-136" value="«subsystem»&lt;br&gt;&lt;b&gt;DBInstance&lt;br&gt;&lt;/b&gt;" style="html=1;dropTarget=0;whiteSpace=wrap;" vertex="1" parent="oTCCA9rSkmGnC_1_AHJk-1">
          <mxGeometry x="695" y="740" width="180" height="90" as="geometry" />
        </mxCell>
        <mxCell id="oTCCA9rSkmGnC_1_AHJk-137" value="" style="shape=module;jettyWidth=8;jettyHeight=4;" vertex="1" parent="oTCCA9rSkmGnC_1_AHJk-136">
          <mxGeometry x="1" width="20" height="20" relative="1" as="geometry">
            <mxPoint x="-27" y="7" as="offset" />
          </mxGeometry>
        </mxCell>
        <mxCell id="oTCCA9rSkmGnC_1_AHJk-138" value="" style="html=1;rounded=0;direction=west;rotation=-180;" vertex="1" parent="oTCCA9rSkmGnC_1_AHJk-1">
          <mxGeometry x="685" y="770" width="30" height="30" as="geometry" />
        </mxCell>
        <mxCell id="oTCCA9rSkmGnC_1_AHJk-139" value="" style="html=1;rounded=0;" vertex="1" parent="oTCCA9rSkmGnC_1_AHJk-1">
          <mxGeometry x="860" y="770" width="30" height="30" as="geometry" />
        </mxCell>
        <mxCell id="oTCCA9rSkmGnC_1_AHJk-140" value="" style="endArrow=none;html=1;rounded=0;align=center;verticalAlign=top;endFill=0;labelBackgroundColor=none;endSize=2;" edge="1" parent="oTCCA9rSkmGnC_1_AHJk-1" source="oTCCA9rSkmGnC_1_AHJk-139" target="oTCCA9rSkmGnC_1_AHJk-141">
          <mxGeometry relative="1" as="geometry" />
        </mxCell>
        <mxCell id="oTCCA9rSkmGnC_1_AHJk-141" value="" style="shape=requiredInterface;html=1;fontSize=11;align=center;fillColor=none;points=[];aspect=fixed;resizable=0;verticalAlign=bottom;labelPosition=center;verticalLabelPosition=top;flipH=1;" vertex="1" parent="oTCCA9rSkmGnC_1_AHJk-1">
          <mxGeometry x="915" y="780" width="5" height="10" as="geometry" />
        </mxCell>
        <mxCell id="oTCCA9rSkmGnC_1_AHJk-145" value="" style="endArrow=none;html=1;rounded=0;align=center;verticalAlign=top;endFill=0;labelBackgroundColor=none;endSize=2;" edge="1" parent="oTCCA9rSkmGnC_1_AHJk-1">
          <mxGeometry relative="1" as="geometry">
            <mxPoint x="648" y="949.8180691092894" as="sourcePoint" />
            <mxPoint x="647.9958741608841" y="949.8183693563237" as="targetPoint" />
          </mxGeometry>
        </mxCell>
        <mxCell id="oTCCA9rSkmGnC_1_AHJk-148" value="" style="endArrow=none;html=1;rounded=0;align=center;verticalAlign=top;endFill=0;labelBackgroundColor=none;endSize=2;" edge="1" parent="oTCCA9rSkmGnC_1_AHJk-1">
          <mxGeometry relative="1" as="geometry">
            <mxPoint x="914.6715728751687" y="961.828427124831" as="sourcePoint" />
            <mxPoint x="915" y="961.0000000000002" as="targetPoint" />
          </mxGeometry>
        </mxCell>
        <mxCell id="oTCCA9rSkmGnC_1_AHJk-150" value="" style="html=1;rounded=0;" vertex="1" parent="oTCCA9rSkmGnC_1_AHJk-1">
          <mxGeometry x="860" y="640" width="30" height="30" as="geometry" />
        </mxCell>
        <mxCell id="oTCCA9rSkmGnC_1_AHJk-151" value="" style="endArrow=none;html=1;rounded=0;align=center;verticalAlign=top;endFill=0;labelBackgroundColor=none;endSize=2;" edge="1" parent="oTCCA9rSkmGnC_1_AHJk-1" source="oTCCA9rSkmGnC_1_AHJk-150" target="oTCCA9rSkmGnC_1_AHJk-152">
          <mxGeometry relative="1" as="geometry" />
        </mxCell>
        <mxCell id="oTCCA9rSkmGnC_1_AHJk-152" value="" style="ellipse;html=1;fontSize=11;align=center;fillColor=none;points=[];aspect=fixed;resizable=0;verticalAlign=bottom;labelPosition=center;verticalLabelPosition=top;flipH=1;" vertex="1" parent="oTCCA9rSkmGnC_1_AHJk-1">
          <mxGeometry x="912" y="651" width="8" height="8" as="geometry" />
        </mxCell>
        <mxCell id="oTCCA9rSkmGnC_1_AHJk-153" value="myDatabase, &lt;br&gt;DBinstance" style="html=1;verticalAlign=bottom;labelBackgroundColor=none;startArrow=oval;startFill=0;startSize=8;endArrow=none;rounded=0;entryX=0;entryY=0.5;entryDx=0;entryDy=0;" edge="1" parent="oTCCA9rSkmGnC_1_AHJk-1">
          <mxGeometry x="-0.6923" y="15" relative="1" as="geometry">
            <mxPoint x="620" y="785" as="sourcePoint" />
            <mxPoint x="685" y="785" as="targetPoint" />
            <mxPoint as="offset" />
          </mxGeometry>
        </mxCell>
        <mxCell id="oTCCA9rSkmGnC_1_AHJk-154" value="" style="html=1;rounded=0;" vertex="1" parent="oTCCA9rSkmGnC_1_AHJk-1">
          <mxGeometry x="930" y="640" width="30" height="30" as="geometry" />
        </mxCell>
        <mxCell id="oTCCA9rSkmGnC_1_AHJk-155" value="userAuth" style="html=1;verticalAlign=bottom;labelBackgroundColor=none;startArrow=oval;startFill=0;startSize=8;endArrow=none;rounded=0;entryX=1;entryY=0.5;entryDx=0;entryDy=0;" edge="1" parent="oTCCA9rSkmGnC_1_AHJk-1" target="oTCCA9rSkmGnC_1_AHJk-154">
          <mxGeometry x="-1" y="-5" relative="1" as="geometry">
            <mxPoint x="1000" y="655" as="sourcePoint" />
            <mxPoint x="977.5" y="651" as="targetPoint" />
            <mxPoint as="offset" />
          </mxGeometry>
        </mxCell>
        <mxCell id="oTCCA9rSkmGnC_1_AHJk-156" value="" style="html=1;rounded=0;" vertex="1" parent="oTCCA9rSkmGnC_1_AHJk-1">
          <mxGeometry x="930" y="770" width="30" height="30" as="geometry" />
        </mxCell>
        <mxCell id="oTCCA9rSkmGnC_1_AHJk-157" value="" style="endArrow=none;html=1;rounded=0;align=center;verticalAlign=top;endFill=0;labelBackgroundColor=none;endSize=2;" edge="1" parent="oTCCA9rSkmGnC_1_AHJk-1" source="oTCCA9rSkmGnC_1_AHJk-156" target="oTCCA9rSkmGnC_1_AHJk-158">
          <mxGeometry relative="1" as="geometry" />
        </mxCell>
        <mxCell id="oTCCA9rSkmGnC_1_AHJk-158" value="" style="shape=requiredInterface;html=1;fontSize=11;align=center;fillColor=none;points=[];aspect=fixed;resizable=0;verticalAlign=bottom;labelPosition=center;verticalLabelPosition=top;flipH=1;" vertex="1" parent="oTCCA9rSkmGnC_1_AHJk-1">
          <mxGeometry x="985" y="780" width="5" height="10" as="geometry" />
        </mxCell>
        <mxCell id="oTCCA9rSkmGnC_1_AHJk-159" value="" style="endArrow=open;html=1;rounded=0;align=center;verticalAlign=bottom;dashed=1;endFill=0;labelBackgroundColor=none;exitX=0.798;exitY=0.502;exitDx=0;exitDy=0;exitPerimeter=0;" edge="1" parent="oTCCA9rSkmGnC_1_AHJk-1" source="oTCCA9rSkmGnC_1_AHJk-158">
          <mxGeometry relative="1" as="geometry">
            <mxPoint x="1000" y="784" as="sourcePoint" />
            <mxPoint x="1000" y="660" as="targetPoint" />
            <Array as="points">
              <mxPoint x="1000" y="785" />
            </Array>
          </mxGeometry>
        </mxCell>
        <mxCell id="oTCCA9rSkmGnC_1_AHJk-160" value="" style="resizable=0;html=1;align=center;verticalAlign=top;labelBackgroundColor=none;" connectable="0" vertex="1" parent="oTCCA9rSkmGnC_1_AHJk-159">
          <mxGeometry relative="1" as="geometry" />
        </mxCell>
        <mxCell id="oTCCA9rSkmGnC_1_AHJk-161" value="" style="endArrow=none;html=1;rounded=0;entryX=0;entryY=0.5;entryDx=0;entryDy=0;" edge="1" parent="oTCCA9rSkmGnC_1_AHJk-1" source="oTCCA9rSkmGnC_1_AHJk-152" target="oTCCA9rSkmGnC_1_AHJk-154">
          <mxGeometry width="50" height="50" relative="1" as="geometry">
            <mxPoint x="860" y="770" as="sourcePoint" />
            <mxPoint x="910" y="720" as="targetPoint" />
          </mxGeometry>
        </mxCell>
        <mxCell id="oTCCA9rSkmGnC_1_AHJk-162" value="" style="endArrow=none;html=1;rounded=0;entryX=0;entryY=0.5;entryDx=0;entryDy=0;exitX=0.983;exitY=0.488;exitDx=0;exitDy=0;exitPerimeter=0;" edge="1" parent="oTCCA9rSkmGnC_1_AHJk-1" source="oTCCA9rSkmGnC_1_AHJk-141" target="oTCCA9rSkmGnC_1_AHJk-156">
          <mxGeometry width="50" height="50" relative="1" as="geometry">
            <mxPoint x="910" y="690" as="sourcePoint" />
            <mxPoint x="960" y="640" as="targetPoint" />
          </mxGeometry>
        </mxCell>
        <mxCell id="oTCCA9rSkmGnC_1_AHJk-163" value="userAuth" style="text;html=1;strokeColor=none;fillColor=none;align=center;verticalAlign=middle;whiteSpace=wrap;rounded=0;" vertex="1" parent="oTCCA9rSkmGnC_1_AHJk-1">
          <mxGeometry x="610" y="629" width="60" height="30" as="geometry" />
        </mxCell>
        <mxCell id="oTCCA9rSkmGnC_1_AHJk-164" value="userAuth" style="text;html=1;strokeColor=none;fillColor=none;align=center;verticalAlign=middle;whiteSpace=wrap;rounded=0;" vertex="1" parent="oTCCA9rSkmGnC_1_AHJk-1">
          <mxGeometry x="970" y="780" width="60" height="30" as="geometry" />
        </mxCell>
        <mxCell id="oTCCA9rSkmGnC_1_AHJk-165" value="" style="html=1;rounded=0;" vertex="1" parent="oTCCA9rSkmGnC_1_AHJk-1">
          <mxGeometry x="860" y="410" width="30" height="30" as="geometry" />
        </mxCell>
        <mxCell id="oTCCA9rSkmGnC_1_AHJk-166" value="" style="endArrow=none;html=1;rounded=0;align=center;verticalAlign=top;endFill=0;labelBackgroundColor=none;endSize=2;" edge="1" source="oTCCA9rSkmGnC_1_AHJk-175" parent="oTCCA9rSkmGnC_1_AHJk-1">
          <mxGeometry relative="1" as="geometry">
            <mxPoint x="912.0013843225761" y="425.10522672835316" as="targetPoint" />
          </mxGeometry>
        </mxCell>
        <mxCell id="oTCCA9rSkmGnC_1_AHJk-168" value="" style="html=1;rounded=0;" vertex="1" parent="oTCCA9rSkmGnC_1_AHJk-1">
          <mxGeometry x="930" y="405" width="30" height="30" as="geometry" />
        </mxCell>
        <mxCell id="oTCCA9rSkmGnC_1_AHJk-169" value="" style="endArrow=none;html=1;rounded=0;align=center;verticalAlign=top;endFill=0;labelBackgroundColor=none;endSize=2;" edge="1" parent="oTCCA9rSkmGnC_1_AHJk-1" source="oTCCA9rSkmGnC_1_AHJk-168" target="oTCCA9rSkmGnC_1_AHJk-170">
          <mxGeometry relative="1" as="geometry" />
        </mxCell>
        <mxCell id="oTCCA9rSkmGnC_1_AHJk-170" value="" style="shape=requiredInterface;html=1;fontSize=11;align=center;fillColor=none;points=[];aspect=fixed;resizable=0;verticalAlign=bottom;labelPosition=center;verticalLabelPosition=top;flipH=1;" vertex="1" parent="oTCCA9rSkmGnC_1_AHJk-1">
          <mxGeometry x="985" y="415" width="5" height="10" as="geometry" />
        </mxCell>
        <mxCell id="oTCCA9rSkmGnC_1_AHJk-171" value="" style="endArrow=open;html=1;rounded=0;align=center;verticalAlign=bottom;dashed=1;endFill=0;labelBackgroundColor=none;exitX=0.798;exitY=0.502;exitDx=0;exitDy=0;exitPerimeter=0;" edge="1" parent="oTCCA9rSkmGnC_1_AHJk-1" source="oTCCA9rSkmGnC_1_AHJk-170">
          <mxGeometry relative="1" as="geometry">
            <mxPoint x="1000" y="419" as="sourcePoint" />
            <mxPoint x="1010" y="120" as="targetPoint" />
            <Array as="points">
              <mxPoint x="1060" y="420" />
              <mxPoint x="1060" y="120" />
            </Array>
          </mxGeometry>
        </mxCell>
        <mxCell id="oTCCA9rSkmGnC_1_AHJk-172" value="" style="resizable=0;html=1;align=center;verticalAlign=top;labelBackgroundColor=none;" connectable="0" vertex="1" parent="oTCCA9rSkmGnC_1_AHJk-171">
          <mxGeometry relative="1" as="geometry" />
        </mxCell>
        <mxCell id="oTCCA9rSkmGnC_1_AHJk-173" value="pRegistry,myDatabase&lt;br&gt;" style="text;html=1;strokeColor=none;fillColor=none;align=center;verticalAlign=middle;whiteSpace=wrap;rounded=0;" vertex="1" parent="oTCCA9rSkmGnC_1_AHJk-1">
          <mxGeometry x="985" y="425" width="60" height="30" as="geometry" />
        </mxCell>
        <mxCell id="oTCCA9rSkmGnC_1_AHJk-175" value="" style="shape=requiredInterface;html=1;fontSize=11;align=center;fillColor=none;points=[];aspect=fixed;resizable=0;verticalAlign=bottom;labelPosition=center;verticalLabelPosition=top;flipH=1;" vertex="1" parent="oTCCA9rSkmGnC_1_AHJk-1">
          <mxGeometry x="913.5" y="420" width="5" height="10" as="geometry" />
        </mxCell>
        <mxCell id="oTCCA9rSkmGnC_1_AHJk-176" value="" style="endArrow=none;html=1;rounded=0;align=center;verticalAlign=top;endFill=0;labelBackgroundColor=none;endSize=2;" edge="1" parent="oTCCA9rSkmGnC_1_AHJk-1" source="oTCCA9rSkmGnC_1_AHJk-165" target="oTCCA9rSkmGnC_1_AHJk-175">
          <mxGeometry relative="1" as="geometry">
            <mxPoint x="180" y="545" as="sourcePoint" />
            <mxPoint x="202.0013843225761" y="545.1052267283532" as="targetPoint" />
          </mxGeometry>
        </mxCell>
        <mxCell id="oTCCA9rSkmGnC_1_AHJk-177" value="" style="endArrow=none;html=1;rounded=0;entryX=0;entryY=0.5;entryDx=0;entryDy=0;" edge="1" parent="oTCCA9rSkmGnC_1_AHJk-1" source="oTCCA9rSkmGnC_1_AHJk-175" target="oTCCA9rSkmGnC_1_AHJk-168">
          <mxGeometry width="50" height="50" relative="1" as="geometry">
            <mxPoint x="920" y="370" as="sourcePoint" />
            <mxPoint x="970" y="320" as="targetPoint" />
          </mxGeometry>
        </mxCell>
        <mxCell id="oTCCA9rSkmGnC_1_AHJk-236" value="&lt;p style=&quot;margin:0px;margin-top:6px;text-align:center;&quot;&gt;&lt;b&gt;&amp;lt;&amp;lt;Component&amp;gt;&amp;gt; Web Application&lt;/b&gt;&lt;/p&gt;&lt;hr&gt;&lt;p style=&quot;margin:0px;margin-left:8px;&quot;&gt;&lt;br&gt;&lt;/p&gt;" style="align=left;overflow=fill;html=1;dropTarget=0;whiteSpace=wrap;" vertex="1" parent="oTCCA9rSkmGnC_1_AHJk-1">
          <mxGeometry x="110" y="60" width="270" height="190" as="geometry" />
        </mxCell>
        <mxCell id="oTCCA9rSkmGnC_1_AHJk-237" value="" style="shape=component;jettyWidth=8;jettyHeight=4;" vertex="1" parent="oTCCA9rSkmGnC_1_AHJk-236">
          <mxGeometry x="1" width="20" height="20" relative="1" as="geometry">
            <mxPoint x="-24" y="4" as="offset" />
          </mxGeometry>
        </mxCell>
        <mxCell id="oTCCA9rSkmGnC_1_AHJk-238" value="«subsystem»&lt;br&gt;&lt;b&gt;Client&lt;/b&gt;" style="html=1;dropTarget=0;whiteSpace=wrap;" vertex="1" parent="oTCCA9rSkmGnC_1_AHJk-1">
          <mxGeometry x="135" y="120" width="180" height="90" as="geometry" />
        </mxCell>
        <mxCell id="oTCCA9rSkmGnC_1_AHJk-239" value="" style="shape=module;jettyWidth=8;jettyHeight=4;" vertex="1" parent="oTCCA9rSkmGnC_1_AHJk-238">
          <mxGeometry x="1" width="20" height="20" relative="1" as="geometry">
            <mxPoint x="-27" y="7" as="offset" />
          </mxGeometry>
        </mxCell>
        <mxCell id="oTCCA9rSkmGnC_1_AHJk-240" value="" style="html=1;rounded=0;direction=west;rotation=-180;" vertex="1" parent="oTCCA9rSkmGnC_1_AHJk-1">
          <mxGeometry x="125" y="150" width="30" height="30" as="geometry" />
        </mxCell>
        <mxCell id="oTCCA9rSkmGnC_1_AHJk-241" value="" style="endArrow=none;html=1;rounded=0;align=center;verticalAlign=top;endFill=0;labelBackgroundColor=none;endSize=2;" edge="1" parent="oTCCA9rSkmGnC_1_AHJk-1" source="oTCCA9rSkmGnC_1_AHJk-240" target="oTCCA9rSkmGnC_1_AHJk-242">
          <mxGeometry relative="1" as="geometry" />
        </mxCell>
        <mxCell id="oTCCA9rSkmGnC_1_AHJk-242" value="" style="ellipse;html=1;fontSize=11;align=center;fillColor=none;points=[];aspect=fixed;resizable=0;verticalAlign=bottom;labelPosition=center;verticalLabelPosition=top;flipH=1;" vertex="1" parent="oTCCA9rSkmGnC_1_AHJk-1">
          <mxGeometry x="80" y="161" width="8" height="8" as="geometry" />
        </mxCell>
        <mxCell id="oTCCA9rSkmGnC_1_AHJk-252" value="" style="endArrow=none;html=1;rounded=0;align=center;verticalAlign=top;endFill=0;labelBackgroundColor=none;endSize=2;" edge="1" parent="oTCCA9rSkmGnC_1_AHJk-1">
          <mxGeometry relative="1" as="geometry">
            <mxPoint x="87.99587416088411" y="459.81836935632373" as="targetPoint" />
            <mxPoint x="87.99999999999977" y="459.8180691092896" as="sourcePoint" />
          </mxGeometry>
        </mxCell>
        <mxCell id="oTCCA9rSkmGnC_1_AHJk-254" value="" style="endArrow=none;html=1;rounded=0;align=center;verticalAlign=top;endFill=0;labelBackgroundColor=none;endSize=2;" edge="1" parent="oTCCA9rSkmGnC_1_AHJk-1">
          <mxGeometry relative="1" as="geometry">
            <mxPoint x="355" y="471.0000000000002" as="targetPoint" />
            <mxPoint x="354.6715728750514" y="471.82842712494835" as="sourcePoint" />
          </mxGeometry>
        </mxCell>
        <mxCell id="oTCCA9rSkmGnC_1_AHJk-255" value="" style="html=1;rounded=0;" vertex="1" parent="oTCCA9rSkmGnC_1_AHJk-1">
          <mxGeometry x="300" y="150" width="30" height="30" as="geometry" />
        </mxCell>
        <mxCell id="oTCCA9rSkmGnC_1_AHJk-256" value="" style="endArrow=none;html=1;rounded=0;align=center;verticalAlign=top;endFill=0;labelBackgroundColor=none;endSize=2;entryX=1.275;entryY=0.463;entryDx=0;entryDy=0;entryPerimeter=0;" edge="1" parent="oTCCA9rSkmGnC_1_AHJk-1" source="oTCCA9rSkmGnC_1_AHJk-255" target="oTCCA9rSkmGnC_1_AHJk-342">
          <mxGeometry relative="1" as="geometry">
            <mxPoint x="352.00061543198103" y="164.92983535845588" as="targetPoint" />
          </mxGeometry>
        </mxCell>
        <mxCell id="oTCCA9rSkmGnC_1_AHJk-259" value="" style="html=1;rounded=0;" vertex="1" parent="oTCCA9rSkmGnC_1_AHJk-1">
          <mxGeometry x="370" y="150" width="30" height="30" as="geometry" />
        </mxCell>
        <mxCell id="oTCCA9rSkmGnC_1_AHJk-266" value="" style="endArrow=none;html=1;rounded=0;entryX=0;entryY=0.5;entryDx=0;entryDy=0;" edge="1" parent="oTCCA9rSkmGnC_1_AHJk-1" source="oTCCA9rSkmGnC_1_AHJk-342" target="oTCCA9rSkmGnC_1_AHJk-259">
          <mxGeometry width="50" height="50" relative="1" as="geometry">
            <mxPoint x="359.99447131735224" y="164.78976466750782" as="sourcePoint" />
            <mxPoint x="350" y="230" as="targetPoint" />
          </mxGeometry>
        </mxCell>
        <mxCell id="oTCCA9rSkmGnC_1_AHJk-268" value="GUI" style="text;html=1;strokeColor=none;fillColor=none;align=center;verticalAlign=middle;whiteSpace=wrap;rounded=0;" vertex="1" parent="oTCCA9rSkmGnC_1_AHJk-1">
          <mxGeometry x="50" y="139" width="60" height="30" as="geometry" />
        </mxCell>
        <mxCell id="oTCCA9rSkmGnC_1_AHJk-309" value="&lt;p style=&quot;margin:0px;margin-top:6px;text-align:center;&quot;&gt;&lt;b&gt;&amp;lt;&amp;lt;Component&amp;gt;&amp;gt; Service Provider&lt;/b&gt;&lt;/p&gt;&lt;hr&gt;&lt;p style=&quot;margin:0px;margin-left:8px;&quot;&gt;&lt;br&gt;&lt;/p&gt;" style="align=left;overflow=fill;html=1;dropTarget=0;whiteSpace=wrap;" vertex="1" parent="oTCCA9rSkmGnC_1_AHJk-1">
          <mxGeometry x="130" y="460" width="275" height="300" as="geometry" />
        </mxCell>
        <mxCell id="oTCCA9rSkmGnC_1_AHJk-310" value="" style="shape=component;jettyWidth=8;jettyHeight=4;" vertex="1" parent="oTCCA9rSkmGnC_1_AHJk-309">
          <mxGeometry x="1" width="20" height="20" relative="1" as="geometry">
            <mxPoint x="-24" y="4" as="offset" />
          </mxGeometry>
        </mxCell>
        <mxCell id="oTCCA9rSkmGnC_1_AHJk-311" value="«subsystem»&lt;br&gt;&lt;b&gt;Service Provider&lt;/b&gt;" style="html=1;dropTarget=0;whiteSpace=wrap;" vertex="1" parent="oTCCA9rSkmGnC_1_AHJk-1">
          <mxGeometry x="155" y="520" width="180" height="90" as="geometry" />
        </mxCell>
        <mxCell id="oTCCA9rSkmGnC_1_AHJk-312" value="" style="shape=module;jettyWidth=8;jettyHeight=4;" vertex="1" parent="oTCCA9rSkmGnC_1_AHJk-311">
          <mxGeometry x="1" width="20" height="20" relative="1" as="geometry">
            <mxPoint x="-27" y="7" as="offset" />
          </mxGeometry>
        </mxCell>
        <mxCell id="oTCCA9rSkmGnC_1_AHJk-313" value="" style="html=1;rounded=0;direction=west;rotation=-180;" vertex="1" parent="oTCCA9rSkmGnC_1_AHJk-1">
          <mxGeometry x="145" y="550" width="30" height="30" as="geometry" />
        </mxCell>
        <mxCell id="oTCCA9rSkmGnC_1_AHJk-314" value="" style="endArrow=none;html=1;rounded=0;align=center;verticalAlign=top;endFill=0;labelBackgroundColor=none;endSize=2;" edge="1" parent="oTCCA9rSkmGnC_1_AHJk-1" source="oTCCA9rSkmGnC_1_AHJk-313" target="oTCCA9rSkmGnC_1_AHJk-315">
          <mxGeometry relative="1" as="geometry" />
        </mxCell>
        <mxCell id="oTCCA9rSkmGnC_1_AHJk-315" value="" style="ellipse;html=1;fontSize=11;align=center;fillColor=none;points=[];aspect=fixed;resizable=0;verticalAlign=bottom;labelPosition=center;verticalLabelPosition=top;flipH=1;" vertex="1" parent="oTCCA9rSkmGnC_1_AHJk-1">
          <mxGeometry x="60" y="561" width="8" height="8" as="geometry" />
        </mxCell>
        <mxCell id="oTCCA9rSkmGnC_1_AHJk-316" value="«subsystem»&lt;br&gt;&lt;b&gt;ServiceInstances&lt;br&gt;&lt;/b&gt;" style="html=1;dropTarget=0;whiteSpace=wrap;" vertex="1" parent="oTCCA9rSkmGnC_1_AHJk-1">
          <mxGeometry x="155" y="650" width="180" height="90" as="geometry" />
        </mxCell>
        <mxCell id="oTCCA9rSkmGnC_1_AHJk-317" value="" style="shape=module;jettyWidth=8;jettyHeight=4;" vertex="1" parent="oTCCA9rSkmGnC_1_AHJk-316">
          <mxGeometry x="1" width="20" height="20" relative="1" as="geometry">
            <mxPoint x="-27" y="7" as="offset" />
          </mxGeometry>
        </mxCell>
        <mxCell id="oTCCA9rSkmGnC_1_AHJk-318" value="" style="html=1;rounded=0;direction=west;rotation=-180;" vertex="1" parent="oTCCA9rSkmGnC_1_AHJk-1">
          <mxGeometry x="145" y="680" width="30" height="30" as="geometry" />
        </mxCell>
        <mxCell id="oTCCA9rSkmGnC_1_AHJk-319" value="" style="html=1;rounded=0;" vertex="1" parent="oTCCA9rSkmGnC_1_AHJk-1">
          <mxGeometry x="320" y="680" width="30" height="30" as="geometry" />
        </mxCell>
        <mxCell id="oTCCA9rSkmGnC_1_AHJk-320" value="" style="endArrow=none;html=1;rounded=0;align=center;verticalAlign=top;endFill=0;labelBackgroundColor=none;endSize=2;" edge="1" parent="oTCCA9rSkmGnC_1_AHJk-1" source="oTCCA9rSkmGnC_1_AHJk-319" target="oTCCA9rSkmGnC_1_AHJk-321">
          <mxGeometry relative="1" as="geometry" />
        </mxCell>
        <mxCell id="oTCCA9rSkmGnC_1_AHJk-321" value="" style="shape=requiredInterface;html=1;fontSize=11;align=center;fillColor=none;points=[];aspect=fixed;resizable=0;verticalAlign=bottom;labelPosition=center;verticalLabelPosition=top;flipH=1;" vertex="1" parent="oTCCA9rSkmGnC_1_AHJk-1">
          <mxGeometry x="375" y="690" width="5" height="10" as="geometry" />
        </mxCell>
        <mxCell id="oTCCA9rSkmGnC_1_AHJk-322" value="" style="html=1;rounded=0;" vertex="1" parent="oTCCA9rSkmGnC_1_AHJk-1">
          <mxGeometry x="320" y="550" width="30" height="30" as="geometry" />
        </mxCell>
        <mxCell id="oTCCA9rSkmGnC_1_AHJk-325" value="myServices" style="html=1;verticalAlign=bottom;labelBackgroundColor=none;startArrow=oval;startFill=0;startSize=8;endArrow=none;rounded=0;entryX=0;entryY=0.5;entryDx=0;entryDy=0;" edge="1" parent="oTCCA9rSkmGnC_1_AHJk-1" target="oTCCA9rSkmGnC_1_AHJk-318">
          <mxGeometry x="-1" y="3" relative="1" as="geometry">
            <mxPoint x="80" y="695" as="sourcePoint" />
            <mxPoint x="130" y="700" as="targetPoint" />
          </mxGeometry>
        </mxCell>
        <mxCell id="oTCCA9rSkmGnC_1_AHJk-326" value="" style="html=1;rounded=0;" vertex="1" parent="oTCCA9rSkmGnC_1_AHJk-1">
          <mxGeometry x="390" y="550" width="30" height="30" as="geometry" />
        </mxCell>
        <mxCell id="oTCCA9rSkmGnC_1_AHJk-328" value="" style="html=1;rounded=0;" vertex="1" parent="oTCCA9rSkmGnC_1_AHJk-1">
          <mxGeometry x="390" y="680" width="30" height="30" as="geometry" />
        </mxCell>
        <mxCell id="oTCCA9rSkmGnC_1_AHJk-329" value="" style="endArrow=none;html=1;rounded=0;align=center;verticalAlign=top;endFill=0;labelBackgroundColor=none;endSize=2;" edge="1" parent="oTCCA9rSkmGnC_1_AHJk-1" source="oTCCA9rSkmGnC_1_AHJk-328" target="oTCCA9rSkmGnC_1_AHJk-330">
          <mxGeometry relative="1" as="geometry" />
        </mxCell>
        <mxCell id="oTCCA9rSkmGnC_1_AHJk-330" value="" style="shape=requiredInterface;html=1;fontSize=11;align=center;fillColor=none;points=[];aspect=fixed;resizable=0;verticalAlign=bottom;labelPosition=center;verticalLabelPosition=top;flipH=1;" vertex="1" parent="oTCCA9rSkmGnC_1_AHJk-1">
          <mxGeometry x="445" y="690" width="5" height="10" as="geometry" />
        </mxCell>
        <mxCell id="oTCCA9rSkmGnC_1_AHJk-331" value="" style="endArrow=open;html=1;rounded=0;align=center;verticalAlign=bottom;dashed=1;endFill=0;labelBackgroundColor=none;" edge="1" parent="oTCCA9rSkmGnC_1_AHJk-1">
          <mxGeometry relative="1" as="geometry">
            <mxPoint x="630" y="640" as="sourcePoint" />
            <mxPoint x="470" y="561" as="targetPoint" />
            <Array as="points">
              <mxPoint x="630" y="561" />
            </Array>
          </mxGeometry>
        </mxCell>
        <mxCell id="oTCCA9rSkmGnC_1_AHJk-332" value="" style="resizable=0;html=1;align=center;verticalAlign=top;labelBackgroundColor=none;" connectable="0" vertex="1" parent="oTCCA9rSkmGnC_1_AHJk-331">
          <mxGeometry relative="1" as="geometry" />
        </mxCell>
        <mxCell id="oTCCA9rSkmGnC_1_AHJk-333" value="" style="endArrow=none;html=1;rounded=0;entryX=0;entryY=0.5;entryDx=0;entryDy=0;" edge="1" parent="oTCCA9rSkmGnC_1_AHJk-1" target="oTCCA9rSkmGnC_1_AHJk-326">
          <mxGeometry width="50" height="50" relative="1" as="geometry">
            <mxPoint x="379.9849623528055" y="565.3465184654614" as="sourcePoint" />
            <mxPoint x="370" y="630" as="targetPoint" />
          </mxGeometry>
        </mxCell>
        <mxCell id="oTCCA9rSkmGnC_1_AHJk-334" value="" style="endArrow=none;html=1;rounded=0;entryX=0;entryY=0.5;entryDx=0;entryDy=0;exitX=0.983;exitY=0.488;exitDx=0;exitDy=0;exitPerimeter=0;" edge="1" parent="oTCCA9rSkmGnC_1_AHJk-1" source="oTCCA9rSkmGnC_1_AHJk-321" target="oTCCA9rSkmGnC_1_AHJk-328">
          <mxGeometry width="50" height="50" relative="1" as="geometry">
            <mxPoint x="370" y="600" as="sourcePoint" />
            <mxPoint x="420" y="550" as="targetPoint" />
          </mxGeometry>
        </mxCell>
        <mxCell id="oTCCA9rSkmGnC_1_AHJk-335" value="ServiceProvider" style="text;html=1;strokeColor=none;fillColor=none;align=center;verticalAlign=middle;whiteSpace=wrap;rounded=0;" vertex="1" parent="oTCCA9rSkmGnC_1_AHJk-1">
          <mxGeometry x="75" y="531" width="60" height="30" as="geometry" />
        </mxCell>
        <mxCell id="oTCCA9rSkmGnC_1_AHJk-336" value="DBInstance" style="text;html=1;strokeColor=none;fillColor=none;align=center;verticalAlign=middle;whiteSpace=wrap;rounded=0;" vertex="1" parent="oTCCA9rSkmGnC_1_AHJk-1">
          <mxGeometry x="430" y="659" width="60" height="30" as="geometry" />
        </mxCell>
        <mxCell id="oTCCA9rSkmGnC_1_AHJk-337" value="userAuth" style="html=1;verticalAlign=bottom;labelBackgroundColor=none;startArrow=halfCircle;startFill=0;startSize=2;endArrow=none;rounded=0;entryX=1;entryY=0.5;entryDx=0;entryDy=0;" edge="1" parent="oTCCA9rSkmGnC_1_AHJk-1" target="oTCCA9rSkmGnC_1_AHJk-326">
          <mxGeometry x="-0.6" y="-15" relative="1" as="geometry">
            <mxPoint x="470" y="565" as="sourcePoint" />
            <mxPoint x="535" y="610" as="targetPoint" />
            <mxPoint x="-1" as="offset" />
          </mxGeometry>
        </mxCell>
        <mxCell id="oTCCA9rSkmGnC_1_AHJk-340" value="" style="endArrow=open;html=1;rounded=0;align=center;verticalAlign=bottom;dashed=1;endFill=0;labelBackgroundColor=none;entryX=1.04;entryY=0.34;entryDx=0;entryDy=0;entryPerimeter=0;" edge="1" parent="oTCCA9rSkmGnC_1_AHJk-1" target="oTCCA9rSkmGnC_1_AHJk-330">
          <mxGeometry relative="1" as="geometry">
            <mxPoint x="620" y="790" as="sourcePoint" />
            <mxPoint x="404.99999999999994" y="700.0499999999997" as="targetPoint" />
            <Array as="points">
              <mxPoint x="560" y="750" />
              <mxPoint x="480" y="700" />
            </Array>
          </mxGeometry>
        </mxCell>
        <mxCell id="oTCCA9rSkmGnC_1_AHJk-341" value="" style="resizable=0;html=1;align=center;verticalAlign=top;labelBackgroundColor=none;" connectable="0" vertex="1" parent="oTCCA9rSkmGnC_1_AHJk-340">
          <mxGeometry relative="1" as="geometry" />
        </mxCell>
        <mxCell id="oTCCA9rSkmGnC_1_AHJk-342" value="" style="shape=requiredInterface;html=1;fontSize=11;align=center;fillColor=none;points=[];aspect=fixed;resizable=0;verticalAlign=bottom;labelPosition=center;verticalLabelPosition=top;flipH=1;" vertex="1" parent="oTCCA9rSkmGnC_1_AHJk-1">
          <mxGeometry x="360" y="160" width="5" height="10" as="geometry" />
        </mxCell>
        <mxCell id="oTCCA9rSkmGnC_1_AHJk-347" value="userAuth, myDatabase,&lt;br&gt;ServiceProvider,&lt;br&gt;pRegistry, myServices" style="html=1;verticalAlign=bottom;labelBackgroundColor=none;startArrow=halfCircle;startFill=0;startSize=2;endArrow=none;rounded=0;entryX=1;entryY=0.5;entryDx=0;entryDy=0;" edge="1" parent="oTCCA9rSkmGnC_1_AHJk-1" target="oTCCA9rSkmGnC_1_AHJk-259">
          <mxGeometry x="-0.1429" y="-15" relative="1" as="geometry">
            <mxPoint x="470" y="165" as="sourcePoint" />
            <mxPoint x="410" y="270" as="targetPoint" />
            <mxPoint as="offset" />
          </mxGeometry>
        </mxCell>
        <mxCell id="oTCCA9rSkmGnC_1_AHJk-351" value="" style="endArrow=open;html=1;rounded=0;align=center;verticalAlign=bottom;dashed=1;endFill=0;labelBackgroundColor=none;" edge="1" parent="oTCCA9rSkmGnC_1_AHJk-1">
          <mxGeometry relative="1" as="geometry">
            <mxPoint x="570" y="560" as="sourcePoint" />
            <mxPoint x="470" y="162" as="targetPoint" />
            <Array as="points">
              <mxPoint x="570" y="390" />
              <mxPoint x="570" y="162" />
            </Array>
          </mxGeometry>
        </mxCell>
        <mxCell id="oTCCA9rSkmGnC_1_AHJk-352" value="" style="resizable=0;html=1;align=center;verticalAlign=top;labelBackgroundColor=none;" connectable="0" vertex="1" parent="oTCCA9rSkmGnC_1_AHJk-351">
          <mxGeometry relative="1" as="geometry" />
        </mxCell>
        <mxCell id="oTCCA9rSkmGnC_1_AHJk-356" value="" style="endArrow=none;startArrow=none;endFill=0;startFill=0;endSize=8;html=1;verticalAlign=bottom;dashed=1;labelBackgroundColor=none;dashPattern=10 10;rounded=0;" edge="1" parent="oTCCA9rSkmGnC_1_AHJk-1">
          <mxGeometry width="160" relative="1" as="geometry">
            <mxPoint x="570" y="260" as="sourcePoint" />
            <mxPoint x="630" y="260" as="targetPoint" />
          </mxGeometry>
        </mxCell>
        <mxCell id="oTCCA9rSkmGnC_1_AHJk-339" value="" style="html=1;verticalAlign=bottom;labelBackgroundColor=none;startArrow=halfCircle;startFill=0;startSize=2;endArrow=none;rounded=0;entryX=1;entryY=0.5;entryDx=0;entryDy=0;" edge="1" parent="1" target="oTCCA9rSkmGnC_1_AHJk-322">
          <mxGeometry x="-0.6" y="-15" relative="1" as="geometry">
            <mxPoint x="-330" y="685" as="sourcePoint" />
            <mxPoint x="-280" y="695" as="targetPoint" />
            <mxPoint x="-1" as="offset" />
          </mxGeometry>
        </mxCell>
        <mxCell id="oTCCA9rSkmGnC_1_AHJk-357" value="" style="endArrow=none;startArrow=none;endFill=0;startFill=0;endSize=8;html=1;verticalAlign=bottom;dashed=1;labelBackgroundColor=none;dashPattern=10 10;rounded=0;" edge="1" parent="1">
          <mxGeometry width="160" relative="1" as="geometry">
            <mxPoint x="-620" y="810" as="sourcePoint" />
            <mxPoint x="-110" y="470" as="targetPoint" />
            <Array as="points">
              <mxPoint x="-620" y="680" />
              <mxPoint x="-620" y="470" />
            </Array>
          </mxGeometry>
        </mxCell>
        <mxCell id="oTCCA9rSkmGnC_1_AHJk-358" value="&lt;font style=&quot;font-size: 18px;&quot;&gt;&lt;b&gt;Component and Connector View&lt;br&gt;Group 14&lt;/b&gt;&lt;/font&gt;" style="text;html=1;align=left;verticalAlign=middle;resizable=0;points=[];autosize=1;strokeColor=none;fillColor=none;" vertex="1" parent="1">
          <mxGeometry x="-680" y="60" width="300" height="60" as="geometry" />
        </mxCell>
        <mxCell id="oTCCA9rSkmGnC_1_AHJk-360" value="" style="html=1;verticalAlign=bottom;labelBackgroundColor=none;startArrow=halfCircle;startFill=0;startSize=2;endArrow=none;rounded=0;entryX=1;entryY=0.5;entryDx=0;entryDy=0;" edge="1" parent="1" target="oTCCA9rSkmGnC_1_AHJk-322">
          <mxGeometry x="-1" y="3" relative="1" as="geometry">
            <mxPoint x="-300" y="685" as="sourcePoint" />
            <mxPoint x="-310" y="730" as="targetPoint" />
          </mxGeometry>
        </mxCell>
        <mxCell id="oTCCA9rSkmGnC_1_AHJk-365" value="" style="endArrow=none;startArrow=none;endFill=0;startFill=0;endSize=8;html=1;verticalAlign=bottom;dashed=1;labelBackgroundColor=none;dashPattern=10 10;rounded=0;entryX=0.5;entryY=1;entryDx=0;entryDy=0;" edge="1" parent="1" target="oTCCA9rSkmGnC_1_AHJk-120">
          <mxGeometry width="160" relative="1" as="geometry">
            <mxPoint x="-110" y="280" as="sourcePoint" />
            <mxPoint x="-40" y="390" as="targetPoint" />
          </mxGeometry>
        </mxCell>
      </root>
    </mxGraphModel>
  </diagram>
</mxfile>
